<mxfile host="Electron" agent="Mozilla/5.0 (Windows NT 10.0; Win64; x64) AppleWebKit/537.36 (KHTML, like Gecko) draw.io/26.0.4 Chrome/128.0.6613.186 Electron/32.2.5 Safari/537.36" version="26.0.4">
  <diagram id="9NYBw4_RFbUZiQ7Jdqxz" name="Pagina-1">
    <mxGraphModel dx="4191" dy="2567" grid="0" gridSize="10" guides="1" tooltips="1" connect="1" arrows="1" fold="1" page="0" pageScale="1" pageWidth="827" pageHeight="1169" math="0" shadow="0">
      <root>
        <mxCell id="0" />
        <mxCell id="1" parent="0" />
        <mxCell id="QYfyC9NZ6OEIeVa-5MZa-1" value="&lt;span style=&quot;background-color: transparent; color: light-dark(rgb(0, 0, 0), rgb(255, 255, 255));&quot;&gt;Ansible Controller&lt;/span&gt;" style="rounded=0;whiteSpace=wrap;html=1;sketch=1;hachureGap=4;jiggle=2;curveFitting=1;fontFamily=Architects Daughter;fontSource=https%3A%2F%2Ffonts.googleapis.com%2Fcss%3Ffamily%3DArchitects%2BDaughter;verticalAlign=top;spacingTop=4;fillColor=#FFCC99;strokeColor=#36393d;align=right;fontSize=10;fontColor=default;spacingRight=7;" vertex="1" parent="1">
          <mxGeometry x="883.5" y="1525" width="268.75" height="44" as="geometry" />
        </mxCell>
        <mxCell id="QYfyC9NZ6OEIeVa-5MZa-2" value="Windows workstation" style="rounded=0;whiteSpace=wrap;html=1;hachureGap=4;fontFamily=Architects Daughter;fontSource=https%3A%2F%2Ffonts.googleapis.com%2Fcss%3Ffamily%3DArchitects%2BDaughter;verticalAlign=top;spacingTop=4;fillColor=default;strokeColor=#36393d;fontSize=16;" vertex="1" parent="1">
          <mxGeometry x="222.75" y="-8" width="919" height="528" as="geometry" />
        </mxCell>
        <mxCell id="QYfyC9NZ6OEIeVa-5MZa-3" value="" style="rounded=0;whiteSpace=wrap;html=1;hachureGap=4;fontFamily=Architects Daughter;fontSource=https%3A%2F%2Ffonts.googleapis.com%2Fcss%3Ffamily%3DArchitects%2BDaughter;verticalAlign=top;spacingTop=4;fillColor=default;strokeColor=#36393d;dashed=1;dashPattern=8 8;" vertex="1" parent="1">
          <mxGeometry x="295.25" y="46" width="261" height="80" as="geometry" />
        </mxCell>
        <mxCell id="QYfyC9NZ6OEIeVa-5MZa-4" value="Virtual Machines" style="rounded=0;whiteSpace=wrap;html=1;hachureGap=4;fontFamily=Architects Daughter;fontSource=https%3A%2F%2Ffonts.googleapis.com%2Fcss%3Ffamily%3DArchitects%2BDaughter;verticalAlign=top;spacingTop=4;fillColor=default;strokeColor=#36393d;dashed=1;dashPattern=8 8;" vertex="1" parent="1">
          <mxGeometry x="667.75" y="154.5" width="398" height="298.5" as="geometry" />
        </mxCell>
        <mxCell id="QYfyC9NZ6OEIeVa-5MZa-5" value="Visual Studio Code" style="rounded=0;whiteSpace=wrap;html=1;sketch=1;hachureGap=4;jiggle=1;curveFitting=1;fontFamily=Architects Daughter;fontSource=https%3A%2F%2Ffonts.googleapis.com%2Fcss%3Ffamily%3DArchitects%2BDaughter;verticalAlign=middle;spacingTop=4;fillColor=#E6E6E6;strokeColor=#36393d;fillStyle=solid;align=center;fontSize=11;fontColor=default;" vertex="1" parent="1">
          <mxGeometry x="349.75" y="315.5" width="113" height="51" as="geometry" />
        </mxCell>
        <mxCell id="QYfyC9NZ6OEIeVa-5MZa-6" value="VM 1&lt;div&gt;Ansible Controller&lt;/div&gt;" style="rounded=0;whiteSpace=wrap;html=1;sketch=1;hachureGap=4;jiggle=2;curveFitting=1;fontFamily=Architects Daughter;fontSource=https%3A%2F%2Ffonts.googleapis.com%2Fcss%3Ffamily%3DArchitects%2BDaughter;verticalAlign=middle;spacingTop=4;fillColor=#FFCC99;strokeColor=#36393d;align=center;fontSize=12;fontColor=default;" vertex="1" parent="1">
          <mxGeometry x="807.5" y="189" width="127.5" height="44" as="geometry" />
        </mxCell>
        <mxCell id="QYfyC9NZ6OEIeVa-5MZa-7" value="Host 1" style="rounded=0;whiteSpace=wrap;html=1;sketch=1;hachureGap=4;jiggle=2;curveFitting=1;fontFamily=Architects Daughter;fontSource=https%3A%2F%2Ffonts.googleapis.com%2Fcss%3Ffamily%3DArchitects%2BDaughter;verticalAlign=middle;spacingTop=4;fillColor=#FFCC99;strokeColor=#36393d;" vertex="1" parent="1">
          <mxGeometry x="740.75" y="304.5" width="73" height="52" as="geometry" />
        </mxCell>
        <mxCell id="QYfyC9NZ6OEIeVa-5MZa-8" value="Host 2" style="rounded=0;whiteSpace=wrap;html=1;sketch=1;hachureGap=4;jiggle=2;curveFitting=1;fontFamily=Architects Daughter;fontSource=https%3A%2F%2Ffonts.googleapis.com%2Fcss%3Ffamily%3DArchitects%2BDaughter;verticalAlign=middle;spacingTop=4;fillColor=#FFCC99;strokeColor=#36393d;align=center;fontSize=12;fontColor=default;" vertex="1" parent="1">
          <mxGeometry x="834.75" y="328" width="73" height="52" as="geometry" />
        </mxCell>
        <mxCell id="QYfyC9NZ6OEIeVa-5MZa-9" value="Host 3" style="rounded=0;whiteSpace=wrap;html=1;sketch=1;hachureGap=4;jiggle=2;curveFitting=1;fontFamily=Architects Daughter;fontSource=https%3A%2F%2Ffonts.googleapis.com%2Fcss%3Ffamily%3DArchitects%2BDaughter;verticalAlign=middle;spacingTop=4;fillColor=#FFCC99;strokeColor=#36393d;align=center;fontSize=12;fontColor=default;" vertex="1" parent="1">
          <mxGeometry x="931.75" y="304.5" width="73" height="52" as="geometry" />
        </mxCell>
        <mxCell id="QYfyC9NZ6OEIeVa-5MZa-10" value="creates" style="edgeStyle=none;curved=1;rounded=0;sketch=1;hachureGap=4;jiggle=2;curveFitting=1;orthogonalLoop=1;jettySize=auto;html=1;fontFamily=Architects Daughter;fontSource=https%3A%2F%2Ffonts.googleapis.com%2Fcss%3Ffamily%3DArchitects%2BDaughter;fontSize=13;startSize=14;endArrow=open;endSize=14;sourcePerimeterSpacing=8;targetPerimeterSpacing=8;" edge="1" parent="1" source="QYfyC9NZ6OEIeVa-5MZa-3" target="QYfyC9NZ6OEIeVa-5MZa-4">
          <mxGeometry relative="1" as="geometry">
            <mxPoint x="380.75" y="428" as="sourcePoint" />
            <mxPoint x="582.75" y="382" as="targetPoint" />
          </mxGeometry>
        </mxCell>
        <mxCell id="QYfyC9NZ6OEIeVa-5MZa-11" value="" style="edgeStyle=none;curved=1;rounded=0;sketch=1;hachureGap=4;jiggle=2;curveFitting=1;orthogonalLoop=1;jettySize=auto;html=1;fontFamily=Architects Daughter;fontSource=https%3A%2F%2Ffonts.googleapis.com%2Fcss%3Ffamily%3DArchitects%2BDaughter;fontSize=13;startSize=14;endArrow=open;endSize=14;sourcePerimeterSpacing=8;targetPerimeterSpacing=8;" edge="1" parent="1" source="QYfyC9NZ6OEIeVa-5MZa-19" target="QYfyC9NZ6OEIeVa-5MZa-7">
          <mxGeometry relative="1" as="geometry">
            <mxPoint x="668.75" y="76.5" as="sourcePoint" />
            <mxPoint x="748.75" y="156.5" as="targetPoint" />
          </mxGeometry>
        </mxCell>
        <mxCell id="QYfyC9NZ6OEIeVa-5MZa-12" value="" style="edgeStyle=none;curved=1;rounded=0;sketch=1;hachureGap=4;jiggle=2;curveFitting=1;orthogonalLoop=1;jettySize=auto;html=1;fontFamily=Architects Daughter;fontSource=https%3A%2F%2Ffonts.googleapis.com%2Fcss%3Ffamily%3DArchitects%2BDaughter;fontSize=13;startSize=14;endArrow=open;endSize=14;sourcePerimeterSpacing=8;targetPerimeterSpacing=8;" edge="1" parent="1" source="QYfyC9NZ6OEIeVa-5MZa-19" target="QYfyC9NZ6OEIeVa-5MZa-8">
          <mxGeometry relative="1" as="geometry">
            <mxPoint x="845.75" y="277.5" as="sourcePoint" />
            <mxPoint x="818.75" y="306.5" as="targetPoint" />
          </mxGeometry>
        </mxCell>
        <mxCell id="QYfyC9NZ6OEIeVa-5MZa-13" value="" style="edgeStyle=none;curved=1;rounded=0;sketch=1;hachureGap=4;jiggle=2;curveFitting=1;orthogonalLoop=1;jettySize=auto;html=1;fontFamily=Architects Daughter;fontSource=https%3A%2F%2Ffonts.googleapis.com%2Fcss%3Ffamily%3DArchitects%2BDaughter;fontSize=13;startSize=14;endArrow=open;endSize=14;sourcePerimeterSpacing=8;targetPerimeterSpacing=8;" edge="1" parent="1" source="QYfyC9NZ6OEIeVa-5MZa-19" target="QYfyC9NZ6OEIeVa-5MZa-9">
          <mxGeometry relative="1" as="geometry">
            <mxPoint x="855.75" y="287.5" as="sourcePoint" />
            <mxPoint x="828.75" y="316.5" as="targetPoint" />
          </mxGeometry>
        </mxCell>
        <mxCell id="QYfyC9NZ6OEIeVa-5MZa-14" value="Alpine linux" style="rounded=0;whiteSpace=wrap;html=1;sketch=1;hachureGap=4;jiggle=1;curveFitting=1;fontFamily=Architects Daughter;fontSource=https%3A%2F%2Ffonts.googleapis.com%2Fcss%3Ffamily%3DArchitects%2BDaughter;verticalAlign=top;spacingTop=4;fillColor=#dae8fc;strokeColor=#6c8ebf;" vertex="1" parent="1">
          <mxGeometry x="895" y="664" width="242" height="145" as="geometry" />
        </mxCell>
        <mxCell id="QYfyC9NZ6OEIeVa-5MZa-15" value="iso&amp;nbsp;&lt;div&gt;&amp;lt; 100 mb&lt;/div&gt;" style="rounded=0;whiteSpace=wrap;html=1;sketch=1;hachureGap=4;jiggle=1;curveFitting=1;fontFamily=Architects Daughter;fontSource=https%3A%2F%2Ffonts.googleapis.com%2Fcss%3Ffamily%3DArchitects%2BDaughter;verticalAlign=middle;spacingTop=4;fillColor=default;strokeColor=#36393d;fontSize=10;" vertex="1" parent="1">
          <mxGeometry x="940" y="718" width="63" height="48" as="geometry" />
        </mxCell>
        <mxCell id="QYfyC9NZ6OEIeVa-5MZa-16" value="1 cpu&lt;div&gt;128 mb&lt;/div&gt;" style="rounded=0;whiteSpace=wrap;html=1;sketch=1;hachureGap=4;jiggle=1;curveFitting=1;fontFamily=Architects Daughter;fontSource=https%3A%2F%2Ffonts.googleapis.com%2Fcss%3Ffamily%3DArchitects%2BDaughter;verticalAlign=middle;spacingTop=-3;fillColor=#fff2cc;strokeColor=#000000;fontSize=10;fillStyle=solid;align=center;spacing=0;fontColor=default;" vertex="1" parent="1">
          <mxGeometry x="1028" y="718" width="60" height="48" as="geometry" />
        </mxCell>
        <mxCell id="QYfyC9NZ6OEIeVa-5MZa-17" value="&lt;div&gt;Vagrantfile&lt;/div&gt;" style="shape=note;whiteSpace=wrap;html=1;backgroundOutline=1;darkOpacity=0.05;rounded=0;sketch=1;hachureGap=4;jiggle=2;curveFitting=1;strokeColor=#36393d;align=center;verticalAlign=middle;spacingTop=4;fontFamily=Architects Daughter;fontSource=https%3A%2F%2Ffonts.googleapis.com%2Fcss%3Ffamily%3DArchitects%2BDaughter;fontSize=12;fontColor=default;fillColor=#A9C4EB;size=18;fillStyle=hachure;" vertex="1" parent="1">
          <mxGeometry x="332.25" y="176" width="70" height="78" as="geometry" />
        </mxCell>
        <mxCell id="QYfyC9NZ6OEIeVa-5MZa-18" value="&lt;div&gt;Playbook&lt;/div&gt;" style="shape=note;whiteSpace=wrap;html=1;backgroundOutline=1;darkOpacity=0.05;rounded=0;sketch=1;hachureGap=4;jiggle=2;curveFitting=1;strokeColor=#36393d;align=center;verticalAlign=middle;spacingTop=4;fontFamily=Architects Daughter;fontSource=https%3A%2F%2Ffonts.googleapis.com%2Fcss%3Ffamily%3DArchitects%2BDaughter;fontSize=12;fontColor=default;fillColor=#A9C4EB;size=18;fillStyle=hachure;" vertex="1" parent="1">
          <mxGeometry x="543.75" y="262" width="67.5" height="78" as="geometry" />
        </mxCell>
        <mxCell id="QYfyC9NZ6OEIeVa-5MZa-19" value="Ansible" style="rounded=0;whiteSpace=wrap;html=1;sketch=1;hachureGap=4;jiggle=1;curveFitting=1;fontFamily=Architects Daughter;fontSource=https%3A%2F%2Ffonts.googleapis.com%2Fcss%3Ffamily%3DArchitects%2BDaughter;verticalAlign=middle;spacingTop=4;fillColor=#E6E6E6;strokeColor=#36393d;fontSize=11;fillStyle=solid;" vertex="1" parent="1">
          <mxGeometry x="839.75" y="230" width="54" height="28" as="geometry" />
        </mxCell>
        <mxCell id="QYfyC9NZ6OEIeVa-5MZa-20" value="Creator" style="shape=umlActor;verticalLabelPosition=bottom;verticalAlign=middle;html=1;outlineConnect=0;rounded=0;sketch=1;hachureGap=4;jiggle=1;curveFitting=1;strokeColor=#36393d;align=center;spacingTop=0;fontFamily=Architects Daughter;fontSource=https%3A%2F%2Ffonts.googleapis.com%2Fcss%3Ffamily%3DArchitects%2BDaughter;fontSize=12;fontColor=default;fillColor=default;spacing=0;spacingBottom=0;aspect=fixed;" vertex="1" parent="1">
          <mxGeometry x="395.25" y="432" width="22" height="44" as="geometry" />
        </mxCell>
        <mxCell id="QYfyC9NZ6OEIeVa-5MZa-21" value="" style="edgeStyle=none;curved=1;rounded=0;sketch=1;hachureGap=4;jiggle=2;curveFitting=1;orthogonalLoop=1;jettySize=auto;html=1;fontFamily=Architects Daughter;fontSource=https%3A%2F%2Ffonts.googleapis.com%2Fcss%3Ffamily%3DArchitects%2BDaughter;fontSize=13;startSize=14;endArrow=open;endSize=14;sourcePerimeterSpacing=8;targetPerimeterSpacing=8;" edge="1" parent="1" source="QYfyC9NZ6OEIeVa-5MZa-20" target="QYfyC9NZ6OEIeVa-5MZa-5">
          <mxGeometry relative="1" as="geometry">
            <mxPoint x="844.75" y="382" as="sourcePoint" />
            <mxPoint x="813.75" y="413" as="targetPoint" />
          </mxGeometry>
        </mxCell>
        <mxCell id="QYfyC9NZ6OEIeVa-5MZa-22" value="" style="edgeStyle=none;curved=1;rounded=0;sketch=1;hachureGap=4;jiggle=2;curveFitting=1;orthogonalLoop=1;jettySize=auto;html=1;fontFamily=Architects Daughter;fontSource=https%3A%2F%2Ffonts.googleapis.com%2Fcss%3Ffamily%3DArchitects%2BDaughter;fontSize=13;startSize=14;endArrow=open;endSize=14;sourcePerimeterSpacing=8;targetPerimeterSpacing=8;" edge="1" parent="1" source="QYfyC9NZ6OEIeVa-5MZa-5" target="QYfyC9NZ6OEIeVa-5MZa-18">
          <mxGeometry relative="1" as="geometry">
            <mxPoint x="849.75" y="327" as="sourcePoint" />
            <mxPoint x="818.75" y="358" as="targetPoint" />
          </mxGeometry>
        </mxCell>
        <mxCell id="QYfyC9NZ6OEIeVa-5MZa-23" style="edgeStyle=none;curved=1;rounded=0;sketch=1;hachureGap=4;jiggle=2;curveFitting=1;orthogonalLoop=1;jettySize=auto;html=1;fontFamily=Architects Daughter;fontSource=https%3A%2F%2Ffonts.googleapis.com%2Fcss%3Ffamily%3DArchitects%2BDaughter;fontSize=16;startSize=14;endArrow=open;endSize=14;sourcePerimeterSpacing=8;targetPerimeterSpacing=8;" edge="1" parent="1" source="QYfyC9NZ6OEIeVa-5MZa-24" target="QYfyC9NZ6OEIeVa-5MZa-17">
          <mxGeometry relative="1" as="geometry" />
        </mxCell>
        <mxCell id="QYfyC9NZ6OEIeVa-5MZa-24" value="Vagrant" style="rounded=0;whiteSpace=wrap;html=1;sketch=1;hachureGap=4;jiggle=1;curveFitting=1;fontFamily=Architects Daughter;fontSource=https%3A%2F%2Ffonts.googleapis.com%2Fcss%3Ffamily%3DArchitects%2BDaughter;verticalAlign=middle;spacingTop=4;fillColor=#E6E6E6;strokeColor=#36393d;fillStyle=solid;align=center;fontSize=11;fontColor=default;" vertex="1" parent="1">
          <mxGeometry x="308.25" y="60" width="113" height="51" as="geometry" />
        </mxCell>
        <mxCell id="QYfyC9NZ6OEIeVa-5MZa-25" value="" style="edgeStyle=none;curved=1;rounded=0;sketch=1;hachureGap=4;jiggle=2;curveFitting=1;orthogonalLoop=1;jettySize=auto;html=1;fontFamily=Architects Daughter;fontSource=https%3A%2F%2Ffonts.googleapis.com%2Fcss%3Ffamily%3DArchitects%2BDaughter;fontSize=13;startSize=14;endArrow=open;endSize=14;sourcePerimeterSpacing=8;targetPerimeterSpacing=8;" edge="1" parent="1" source="QYfyC9NZ6OEIeVa-5MZa-5" target="QYfyC9NZ6OEIeVa-5MZa-17">
          <mxGeometry relative="1" as="geometry">
            <mxPoint x="492.75" y="169" as="sourcePoint" />
            <mxPoint x="545.75" y="286" as="targetPoint" />
          </mxGeometry>
        </mxCell>
        <mxCell id="QYfyC9NZ6OEIeVa-5MZa-26" value="Virtual Box" style="rounded=0;whiteSpace=wrap;html=1;sketch=1;hachureGap=4;jiggle=1;curveFitting=1;fontFamily=Architects Daughter;fontSource=https%3A%2F%2Ffonts.googleapis.com%2Fcss%3Ffamily%3DArchitects%2BDaughter;verticalAlign=middle;spacingTop=4;fillColor=#E6E6E6;strokeColor=#36393d;fillStyle=solid;align=center;fontSize=11;fontColor=default;" vertex="1" parent="1">
          <mxGeometry x="431.25" y="60" width="113" height="51" as="geometry" />
        </mxCell>
        <mxCell id="QYfyC9NZ6OEIeVa-5MZa-27" style="edgeStyle=none;curved=1;rounded=0;sketch=1;hachureGap=4;jiggle=2;curveFitting=1;orthogonalLoop=1;jettySize=auto;html=1;fontFamily=Architects Daughter;fontSource=https%3A%2F%2Ffonts.googleapis.com%2Fcss%3Ffamily%3DArchitects%2BDaughter;fontSize=16;startSize=14;endArrow=open;endSize=14;sourcePerimeterSpacing=8;targetPerimeterSpacing=8;" edge="1" parent="1" source="QYfyC9NZ6OEIeVa-5MZa-28" target="QYfyC9NZ6OEIeVa-5MZa-43">
          <mxGeometry relative="1" as="geometry" />
        </mxCell>
        <mxCell id="QYfyC9NZ6OEIeVa-5MZa-28" value="&lt;div&gt;playbook&lt;/div&gt;" style="shape=note;whiteSpace=wrap;html=1;backgroundOutline=1;darkOpacity=0.05;rounded=0;sketch=1;hachureGap=4;jiggle=2;curveFitting=1;strokeColor=#36393d;align=center;verticalAlign=middle;spacingTop=4;fontFamily=Architects Daughter;fontSource=https%3A%2F%2Ffonts.googleapis.com%2Fcss%3Ffamily%3DArchitects%2BDaughter;fontSize=12;fontColor=default;fillColor=#A9C4EB;size=18;fillStyle=hachure;" vertex="1" parent="1">
          <mxGeometry x="343.25" y="1010" width="67.5" height="78" as="geometry" />
        </mxCell>
        <mxCell id="QYfyC9NZ6OEIeVa-5MZa-29" style="edgeStyle=none;curved=1;rounded=0;sketch=1;hachureGap=4;jiggle=2;curveFitting=1;orthogonalLoop=1;jettySize=auto;html=1;fontFamily=Architects Daughter;fontSource=https%3A%2F%2Ffonts.googleapis.com%2Fcss%3Ffamily%3DArchitects%2BDaughter;fontSize=16;startSize=14;endArrow=open;endSize=14;sourcePerimeterSpacing=8;targetPerimeterSpacing=8;" edge="1" parent="1" source="QYfyC9NZ6OEIeVa-5MZa-30" target="QYfyC9NZ6OEIeVa-5MZa-43">
          <mxGeometry relative="1" as="geometry" />
        </mxCell>
        <mxCell id="QYfyC9NZ6OEIeVa-5MZa-30" value="&lt;div&gt;Inventory&lt;/div&gt;" style="shape=note;whiteSpace=wrap;html=1;backgroundOutline=1;darkOpacity=0.05;rounded=0;sketch=1;hachureGap=4;jiggle=2;curveFitting=1;strokeColor=#36393d;align=center;verticalAlign=middle;spacingTop=4;fontFamily=Architects Daughter;fontSource=https%3A%2F%2Ffonts.googleapis.com%2Fcss%3Ffamily%3DArchitects%2BDaughter;fontSize=12;fontColor=default;fillColor=#A9C4EB;size=18;fillStyle=hachure;" vertex="1" parent="1">
          <mxGeometry x="250.25" y="1010" width="67.5" height="78" as="geometry" />
        </mxCell>
        <mxCell id="QYfyC9NZ6OEIeVa-5MZa-36" value="VM 1&lt;div&gt;Ansible Controller&lt;/div&gt;" style="rounded=0;whiteSpace=wrap;html=1;sketch=1;hachureGap=4;jiggle=2;curveFitting=1;fontFamily=Architects Daughter;fontSource=https%3A%2F%2Ffonts.googleapis.com%2Fcss%3Ffamily%3DArchitects%2BDaughter;verticalAlign=middle;spacingTop=4;fillColor=#FFCC99;strokeColor=#36393d;align=center;fontSize=12;fontColor=default;" vertex="1" parent="1">
          <mxGeometry x="262.75" y="1122" width="127.5" height="44" as="geometry" />
        </mxCell>
        <mxCell id="QYfyC9NZ6OEIeVa-5MZa-37" value="Host 1" style="rounded=0;whiteSpace=wrap;html=1;sketch=1;hachureGap=4;jiggle=2;curveFitting=1;fontFamily=Architects Daughter;fontSource=https%3A%2F%2Ffonts.googleapis.com%2Fcss%3Ffamily%3DArchitects%2BDaughter;verticalAlign=middle;spacingTop=4;fillColor=#FFCC99;strokeColor=#36393d;" vertex="1" parent="1">
          <mxGeometry x="196" y="1237.5" width="73" height="52" as="geometry" />
        </mxCell>
        <mxCell id="QYfyC9NZ6OEIeVa-5MZa-38" value="Host 2" style="rounded=0;whiteSpace=wrap;html=1;sketch=1;hachureGap=4;jiggle=2;curveFitting=1;fontFamily=Architects Daughter;fontSource=https%3A%2F%2Ffonts.googleapis.com%2Fcss%3Ffamily%3DArchitects%2BDaughter;verticalAlign=middle;spacingTop=4;fillColor=#FFCC99;strokeColor=#36393d;align=center;fontSize=12;fontColor=default;" vertex="1" parent="1">
          <mxGeometry x="290" y="1261" width="73" height="52" as="geometry" />
        </mxCell>
        <mxCell id="QYfyC9NZ6OEIeVa-5MZa-39" value="Host 3" style="rounded=0;whiteSpace=wrap;html=1;sketch=1;hachureGap=4;jiggle=2;curveFitting=1;fontFamily=Architects Daughter;fontSource=https%3A%2F%2Ffonts.googleapis.com%2Fcss%3Ffamily%3DArchitects%2BDaughter;verticalAlign=middle;spacingTop=4;fillColor=#FFCC99;strokeColor=#36393d;align=center;fontSize=12;fontColor=default;" vertex="1" parent="1">
          <mxGeometry x="387" y="1237.5" width="73" height="52" as="geometry" />
        </mxCell>
        <mxCell id="QYfyC9NZ6OEIeVa-5MZa-40" value="" style="edgeStyle=none;curved=1;rounded=0;sketch=1;hachureGap=4;jiggle=2;curveFitting=1;orthogonalLoop=1;jettySize=auto;html=1;fontFamily=Architects Daughter;fontSource=https%3A%2F%2Ffonts.googleapis.com%2Fcss%3Ffamily%3DArchitects%2BDaughter;fontSize=13;startSize=14;endArrow=open;endSize=14;sourcePerimeterSpacing=8;targetPerimeterSpacing=8;" edge="1" parent="1" source="QYfyC9NZ6OEIeVa-5MZa-43" target="QYfyC9NZ6OEIeVa-5MZa-37">
          <mxGeometry relative="1" as="geometry">
            <mxPoint x="124" y="1009.5" as="sourcePoint" />
            <mxPoint x="204" y="1089.5" as="targetPoint" />
          </mxGeometry>
        </mxCell>
        <mxCell id="QYfyC9NZ6OEIeVa-5MZa-41" value="" style="edgeStyle=none;curved=1;rounded=0;sketch=1;hachureGap=4;jiggle=2;curveFitting=1;orthogonalLoop=1;jettySize=auto;html=1;fontFamily=Architects Daughter;fontSource=https%3A%2F%2Ffonts.googleapis.com%2Fcss%3Ffamily%3DArchitects%2BDaughter;fontSize=13;startSize=14;endArrow=open;endSize=14;sourcePerimeterSpacing=8;targetPerimeterSpacing=8;" edge="1" parent="1" source="QYfyC9NZ6OEIeVa-5MZa-43" target="QYfyC9NZ6OEIeVa-5MZa-38">
          <mxGeometry relative="1" as="geometry">
            <mxPoint x="301" y="1210.5" as="sourcePoint" />
            <mxPoint x="274" y="1239.5" as="targetPoint" />
          </mxGeometry>
        </mxCell>
        <mxCell id="QYfyC9NZ6OEIeVa-5MZa-42" value="" style="edgeStyle=none;curved=1;rounded=0;sketch=1;hachureGap=4;jiggle=2;curveFitting=1;orthogonalLoop=1;jettySize=auto;html=1;fontFamily=Architects Daughter;fontSource=https%3A%2F%2Ffonts.googleapis.com%2Fcss%3Ffamily%3DArchitects%2BDaughter;fontSize=13;startSize=14;endArrow=open;endSize=14;sourcePerimeterSpacing=8;targetPerimeterSpacing=8;" edge="1" parent="1" source="QYfyC9NZ6OEIeVa-5MZa-43" target="QYfyC9NZ6OEIeVa-5MZa-39">
          <mxGeometry relative="1" as="geometry">
            <mxPoint x="311" y="1220.5" as="sourcePoint" />
            <mxPoint x="284" y="1249.5" as="targetPoint" />
          </mxGeometry>
        </mxCell>
        <mxCell id="QYfyC9NZ6OEIeVa-5MZa-43" value="Ansible" style="rounded=0;whiteSpace=wrap;html=1;sketch=1;hachureGap=4;jiggle=1;curveFitting=1;fontFamily=Architects Daughter;fontSource=https%3A%2F%2Ffonts.googleapis.com%2Fcss%3Ffamily%3DArchitects%2BDaughter;verticalAlign=middle;spacingTop=4;fillColor=#E6E6E6;strokeColor=#36393d;fontSize=11;fillStyle=solid;" vertex="1" parent="1">
          <mxGeometry x="295" y="1163" width="54" height="28" as="geometry" />
        </mxCell>
        <mxCell id="QYfyC9NZ6OEIeVa-5MZa-44" value="VM 1&lt;div&gt;Ansible Controller&lt;/div&gt;" style="rounded=0;whiteSpace=wrap;html=1;sketch=1;hachureGap=4;jiggle=2;curveFitting=1;fontFamily=Architects Daughter;fontSource=https%3A%2F%2Ffonts.googleapis.com%2Fcss%3Ffamily%3DArchitects%2BDaughter;verticalAlign=middle;spacingTop=4;fillColor=#FFCC99;strokeColor=#36393d;align=center;fontSize=12;fontColor=default;" vertex="1" parent="1">
          <mxGeometry x="628.75" y="1078.5" width="127.5" height="44" as="geometry" />
        </mxCell>
        <mxCell id="QYfyC9NZ6OEIeVa-5MZa-45" value="Host 1" style="rounded=0;whiteSpace=wrap;html=1;sketch=1;hachureGap=4;jiggle=2;curveFitting=1;fontFamily=Architects Daughter;fontSource=https%3A%2F%2Ffonts.googleapis.com%2Fcss%3Ffamily%3DArchitects%2BDaughter;verticalAlign=middle;spacingTop=4;fillColor=#FFCC99;strokeColor=#36393d;" vertex="1" parent="1">
          <mxGeometry x="562" y="1194" width="73" height="52" as="geometry" />
        </mxCell>
        <mxCell id="QYfyC9NZ6OEIeVa-5MZa-46" value="Host 2" style="rounded=0;whiteSpace=wrap;html=1;sketch=1;hachureGap=4;jiggle=2;curveFitting=1;fontFamily=Architects Daughter;fontSource=https%3A%2F%2Ffonts.googleapis.com%2Fcss%3Ffamily%3DArchitects%2BDaughter;verticalAlign=middle;spacingTop=4;fillColor=#FFCC99;strokeColor=#36393d;align=center;fontSize=12;fontColor=default;" vertex="1" parent="1">
          <mxGeometry x="656" y="1217.5" width="73" height="52" as="geometry" />
        </mxCell>
        <mxCell id="QYfyC9NZ6OEIeVa-5MZa-47" value="Host 3" style="rounded=0;whiteSpace=wrap;html=1;sketch=1;hachureGap=4;jiggle=2;curveFitting=1;fontFamily=Architects Daughter;fontSource=https%3A%2F%2Ffonts.googleapis.com%2Fcss%3Ffamily%3DArchitects%2BDaughter;verticalAlign=middle;spacingTop=4;fillColor=#FFCC99;strokeColor=#36393d;align=center;fontSize=12;fontColor=default;" vertex="1" parent="1">
          <mxGeometry x="753" y="1194" width="73" height="52" as="geometry" />
        </mxCell>
        <mxCell id="QYfyC9NZ6OEIeVa-5MZa-48" value="" style="edgeStyle=none;curved=1;rounded=0;sketch=1;hachureGap=4;jiggle=2;curveFitting=1;orthogonalLoop=1;jettySize=auto;html=1;fontFamily=Architects Daughter;fontSource=https%3A%2F%2Ffonts.googleapis.com%2Fcss%3Ffamily%3DArchitects%2BDaughter;fontSize=13;startSize=14;endArrow=open;endSize=14;sourcePerimeterSpacing=8;targetPerimeterSpacing=8;" edge="1" parent="1" source="QYfyC9NZ6OEIeVa-5MZa-55" target="QYfyC9NZ6OEIeVa-5MZa-52">
          <mxGeometry relative="1" as="geometry">
            <mxPoint x="490" y="966" as="sourcePoint" />
            <mxPoint x="570" y="1046" as="targetPoint" />
          </mxGeometry>
        </mxCell>
        <mxCell id="QYfyC9NZ6OEIeVa-5MZa-49" value="" style="edgeStyle=none;curved=1;rounded=0;sketch=1;hachureGap=4;jiggle=2;curveFitting=1;orthogonalLoop=1;jettySize=auto;html=1;fontFamily=Architects Daughter;fontSource=https%3A%2F%2Ffonts.googleapis.com%2Fcss%3Ffamily%3DArchitects%2BDaughter;fontSize=13;startSize=14;endArrow=open;endSize=14;sourcePerimeterSpacing=8;targetPerimeterSpacing=8;" edge="1" parent="1" source="QYfyC9NZ6OEIeVa-5MZa-55" target="QYfyC9NZ6OEIeVa-5MZa-53">
          <mxGeometry relative="1" as="geometry">
            <mxPoint x="667" y="1167" as="sourcePoint" />
            <mxPoint x="640" y="1196" as="targetPoint" />
          </mxGeometry>
        </mxCell>
        <mxCell id="QYfyC9NZ6OEIeVa-5MZa-50" value="" style="edgeStyle=none;curved=1;rounded=0;sketch=1;hachureGap=4;jiggle=2;curveFitting=1;orthogonalLoop=1;jettySize=auto;html=1;fontFamily=Architects Daughter;fontSource=https%3A%2F%2Ffonts.googleapis.com%2Fcss%3Ffamily%3DArchitects%2BDaughter;fontSize=13;startSize=14;endArrow=open;endSize=14;sourcePerimeterSpacing=8;targetPerimeterSpacing=8;" edge="1" parent="1" source="QYfyC9NZ6OEIeVa-5MZa-55" target="QYfyC9NZ6OEIeVa-5MZa-54">
          <mxGeometry relative="1" as="geometry">
            <mxPoint x="677" y="1177" as="sourcePoint" />
            <mxPoint x="650" y="1206" as="targetPoint" />
          </mxGeometry>
        </mxCell>
        <mxCell id="QYfyC9NZ6OEIeVa-5MZa-51" value="Ansible" style="rounded=0;whiteSpace=wrap;html=1;sketch=1;hachureGap=4;jiggle=1;curveFitting=1;fontFamily=Architects Daughter;fontSource=https%3A%2F%2Ffonts.googleapis.com%2Fcss%3Ffamily%3DArchitects%2BDaughter;verticalAlign=middle;spacingTop=4;fillColor=#E6E6E6;strokeColor=#36393d;fontSize=11;fillStyle=solid;" vertex="1" parent="1">
          <mxGeometry x="661" y="1119.5" width="54" height="28" as="geometry" />
        </mxCell>
        <mxCell id="QYfyC9NZ6OEIeVa-5MZa-52" value="22" style="rounded=0;whiteSpace=wrap;html=1;sketch=1;hachureGap=4;jiggle=1;curveFitting=1;fontFamily=Architects Daughter;fontSource=https%3A%2F%2Ffonts.googleapis.com%2Fcss%3Ffamily%3DArchitects%2BDaughter;verticalAlign=middle;spacingTop=0;fillColor=#FFFF99;strokeColor=#36393d;fontSize=11;fillStyle=solid;labelBackgroundColor=none;" vertex="1" parent="1">
          <mxGeometry x="588.25" y="1186.5" width="24" height="15" as="geometry" />
        </mxCell>
        <mxCell id="QYfyC9NZ6OEIeVa-5MZa-53" value="22" style="rounded=0;whiteSpace=wrap;html=1;sketch=1;hachureGap=4;jiggle=1;curveFitting=1;fontFamily=Architects Daughter;fontSource=https%3A%2F%2Ffonts.googleapis.com%2Fcss%3Ffamily%3DArchitects%2BDaughter;verticalAlign=middle;spacingTop=0;fillColor=#FFFF99;strokeColor=#36393d;fontSize=11;fillStyle=solid;labelBackgroundColor=none;" vertex="1" parent="1">
          <mxGeometry x="680.5" y="1212.5" width="24" height="15" as="geometry" />
        </mxCell>
        <mxCell id="QYfyC9NZ6OEIeVa-5MZa-54" value="22" style="rounded=0;whiteSpace=wrap;html=1;sketch=1;hachureGap=4;jiggle=1;curveFitting=1;fontFamily=Architects Daughter;fontSource=https%3A%2F%2Ffonts.googleapis.com%2Fcss%3Ffamily%3DArchitects%2BDaughter;verticalAlign=middle;spacingTop=0;fillColor=#FFFF99;strokeColor=#36393d;fontSize=11;fillStyle=solid;labelBackgroundColor=none;" vertex="1" parent="1">
          <mxGeometry x="775.25" y="1186.5" width="24" height="15" as="geometry" />
        </mxCell>
        <mxCell id="QYfyC9NZ6OEIeVa-5MZa-55" value="ssh" style="rounded=0;whiteSpace=wrap;html=1;sketch=1;hachureGap=4;jiggle=1;curveFitting=1;fontFamily=Architects Daughter;fontSource=https%3A%2F%2Ffonts.googleapis.com%2Fcss%3Ffamily%3DArchitects%2BDaughter;verticalAlign=middle;spacingTop=0;fillColor=#FFFF99;strokeColor=#36393d;fontSize=11;fillStyle=solid;labelBackgroundColor=none;" vertex="1" parent="1">
          <mxGeometry x="671.37" y="1143.5" width="33.25" height="16" as="geometry" />
        </mxCell>
        <mxCell id="QYfyC9NZ6OEIeVa-5MZa-56" value="VirtualBox" style="rounded=0;whiteSpace=wrap;html=1;sketch=1;hachureGap=4;jiggle=1;curveFitting=1;fontFamily=Architects Daughter;fontSource=https%3A%2F%2Ffonts.googleapis.com%2Fcss%3Ffamily%3DArchitects%2BDaughter;verticalAlign=top;spacingTop=4;fillColor=#E6E6E6;strokeColor=#36393d;fillStyle=solid;align=center;fontSize=16;fontColor=default;fontStyle=1" vertex="1" parent="1">
          <mxGeometry x="137" y="590" width="641" height="293" as="geometry" />
        </mxCell>
        <mxCell id="QYfyC9NZ6OEIeVa-5MZa-57" value="Hypervisor" style="rounded=0;whiteSpace=wrap;html=1;sketch=1;hachureGap=4;jiggle=2;curveFitting=1;fontFamily=Architects Daughter;fontSource=https%3A%2F%2Ffonts.googleapis.com%2Fcss%3Ffamily%3DArchitects%2BDaughter;verticalAlign=middle;spacingTop=4;fillColor=default;strokeColor=#36393d;fontSize=14;" vertex="1" parent="1">
          <mxGeometry x="262.5" y="667" width="86" height="69" as="geometry" />
        </mxCell>
        <mxCell id="QYfyC9NZ6OEIeVa-5MZa-58" value="Open Source" style="rounded=0;whiteSpace=wrap;html=1;sketch=1;hachureGap=4;jiggle=2;curveFitting=1;fontFamily=Architects Daughter;fontSource=https%3A%2F%2Ffonts.googleapis.com%2Fcss%3Ffamily%3DArchitects%2BDaughter;verticalAlign=middle;spacingTop=4;fillColor=default;strokeColor=#36393d;fontSize=14;" vertex="1" parent="1">
          <mxGeometry x="416.5" y="667" width="86" height="69" as="geometry" />
        </mxCell>
        <mxCell id="QYfyC9NZ6OEIeVa-5MZa-59" value="Backed by Oracle" style="rounded=0;whiteSpace=wrap;html=1;sketch=1;hachureGap=4;jiggle=2;curveFitting=1;fontFamily=Architects Daughter;fontSource=https%3A%2F%2Ffonts.googleapis.com%2Fcss%3Ffamily%3DArchitects%2BDaughter;verticalAlign=middle;spacingTop=4;fillColor=default;strokeColor=#36393d;fontSize=14;" vertex="1" parent="1">
          <mxGeometry x="578.25" y="667" width="86" height="69" as="geometry" />
        </mxCell>
        <mxCell id="QYfyC9NZ6OEIeVa-5MZa-60" value="Competes with vmWare and HyperV" style="rounded=0;whiteSpace=wrap;html=1;sketch=1;hachureGap=4;jiggle=2;curveFitting=1;fontFamily=Architects Daughter;fontSource=https%3A%2F%2Ffonts.googleapis.com%2Fcss%3Ffamily%3DArchitects%2BDaughter;verticalAlign=middle;spacingTop=4;fillColor=#4D4D4D;strokeColor=#36393d;fontSize=14;fillStyle=solid;fontColor=#E6E6E6;" vertex="1" parent="1">
          <mxGeometry x="249" y="767" width="113" height="67" as="geometry" />
        </mxCell>
        <mxCell id="QYfyC9NZ6OEIeVa-5MZa-61" value="1 cpu - 256&amp;nbsp;&lt;span style=&quot;background-color: transparent; color: light-dark(rgb(0, 0, 0), rgb(255, 255, 255));&quot;&gt;mb&lt;/span&gt;" style="rounded=0;whiteSpace=wrap;html=1;sketch=1;hachureGap=4;jiggle=1;curveFitting=1;fontFamily=Architects Daughter;fontSource=https%3A%2F%2Ffonts.googleapis.com%2Fcss%3Ffamily%3DArchitects%2BDaughter;verticalAlign=middle;spacingTop=-3;fillColor=#fff2cc;strokeColor=#000000;fontSize=10;fillStyle=solid;spacing=0;" vertex="1" parent="1">
          <mxGeometry x="1048" y="1060" width="81" height="14" as="geometry" />
        </mxCell>
        <mxCell id="QYfyC9NZ6OEIeVa-5MZa-62" value="VM 1&lt;div&gt;Ansible Controller&lt;/div&gt;" style="rounded=0;whiteSpace=wrap;html=1;sketch=1;hachureGap=4;jiggle=2;curveFitting=1;fontFamily=Architects Daughter;fontSource=https%3A%2F%2Ffonts.googleapis.com%2Fcss%3Ffamily%3DArchitects%2BDaughter;verticalAlign=middle;spacingTop=4;fillColor=#FFCC99;strokeColor=#36393d;align=center;fontSize=12;fontColor=default;" vertex="1" parent="1">
          <mxGeometry x="1024.75" y="1073" width="127.5" height="44" as="geometry" />
        </mxCell>
        <mxCell id="QYfyC9NZ6OEIeVa-5MZa-63" value="Host 1" style="rounded=0;whiteSpace=wrap;html=1;sketch=1;hachureGap=4;jiggle=2;curveFitting=1;fontFamily=Architects Daughter;fontSource=https%3A%2F%2Ffonts.googleapis.com%2Fcss%3Ffamily%3DArchitects%2BDaughter;verticalAlign=middle;spacingTop=4;fillColor=#FFCC99;strokeColor=#36393d;" vertex="1" parent="1">
          <mxGeometry x="958" y="1188.5" width="73" height="52" as="geometry" />
        </mxCell>
        <mxCell id="QYfyC9NZ6OEIeVa-5MZa-64" value="Host 2" style="rounded=0;whiteSpace=wrap;html=1;sketch=1;hachureGap=4;jiggle=2;curveFitting=1;fontFamily=Architects Daughter;fontSource=https%3A%2F%2Ffonts.googleapis.com%2Fcss%3Ffamily%3DArchitects%2BDaughter;verticalAlign=middle;spacingTop=4;fillColor=#FFCC99;strokeColor=#36393d;align=center;fontSize=12;fontColor=default;" vertex="1" parent="1">
          <mxGeometry x="1052" y="1212" width="73" height="52" as="geometry" />
        </mxCell>
        <mxCell id="QYfyC9NZ6OEIeVa-5MZa-65" value="Host 3" style="rounded=0;whiteSpace=wrap;html=1;sketch=1;hachureGap=4;jiggle=2;curveFitting=1;fontFamily=Architects Daughter;fontSource=https%3A%2F%2Ffonts.googleapis.com%2Fcss%3Ffamily%3DArchitects%2BDaughter;verticalAlign=middle;spacingTop=4;fillColor=#FFCC99;strokeColor=#36393d;align=center;fontSize=12;fontColor=default;" vertex="1" parent="1">
          <mxGeometry x="1149" y="1188.5" width="73" height="52" as="geometry" />
        </mxCell>
        <mxCell id="QYfyC9NZ6OEIeVa-5MZa-66" value="" style="edgeStyle=none;curved=1;rounded=0;sketch=1;hachureGap=4;jiggle=2;curveFitting=1;orthogonalLoop=1;jettySize=auto;html=1;fontFamily=Architects Daughter;fontSource=https%3A%2F%2Ffonts.googleapis.com%2Fcss%3Ffamily%3DArchitects%2BDaughter;fontSize=13;startSize=14;endArrow=open;endSize=14;sourcePerimeterSpacing=8;targetPerimeterSpacing=8;" edge="1" parent="1" source="QYfyC9NZ6OEIeVa-5MZa-62" target="QYfyC9NZ6OEIeVa-5MZa-63">
          <mxGeometry relative="1" as="geometry">
            <mxPoint x="1061.2369942196528" y="1149.9999999999998" as="sourcePoint" />
            <mxPoint x="966" y="1040.5" as="targetPoint" />
          </mxGeometry>
        </mxCell>
        <mxCell id="QYfyC9NZ6OEIeVa-5MZa-67" value="" style="edgeStyle=none;curved=1;rounded=0;sketch=1;hachureGap=4;jiggle=2;curveFitting=1;orthogonalLoop=1;jettySize=auto;html=1;fontFamily=Architects Daughter;fontSource=https%3A%2F%2Ffonts.googleapis.com%2Fcss%3Ffamily%3DArchitects%2BDaughter;fontSize=13;startSize=14;endArrow=open;endSize=14;sourcePerimeterSpacing=8;targetPerimeterSpacing=8;" edge="1" parent="1" source="QYfyC9NZ6OEIeVa-5MZa-62" target="QYfyC9NZ6OEIeVa-5MZa-64">
          <mxGeometry relative="1" as="geometry">
            <mxPoint x="1084.9" y="1149.9999999999998" as="sourcePoint" />
            <mxPoint x="1036" y="1190.5" as="targetPoint" />
          </mxGeometry>
        </mxCell>
        <mxCell id="QYfyC9NZ6OEIeVa-5MZa-68" value="" style="edgeStyle=none;curved=1;rounded=0;sketch=1;hachureGap=4;jiggle=2;curveFitting=1;orthogonalLoop=1;jettySize=auto;html=1;fontFamily=Architects Daughter;fontSource=https%3A%2F%2Ffonts.googleapis.com%2Fcss%3Ffamily%3DArchitects%2BDaughter;fontSize=13;startSize=14;endArrow=open;endSize=14;sourcePerimeterSpacing=8;targetPerimeterSpacing=8;" edge="1" parent="1" source="QYfyC9NZ6OEIeVa-5MZa-62" target="QYfyC9NZ6OEIeVa-5MZa-65">
          <mxGeometry relative="1" as="geometry">
            <mxPoint x="1109.815028901734" y="1149.9999999999998" as="sourcePoint" />
            <mxPoint x="1046" y="1200.5" as="targetPoint" />
          </mxGeometry>
        </mxCell>
        <mxCell id="QYfyC9NZ6OEIeVa-5MZa-69" value="1 cpu - 128&amp;nbsp;&lt;span style=&quot;background-color: transparent; color: light-dark(rgb(0, 0, 0), rgb(255, 255, 255));&quot;&gt;mb&lt;/span&gt;" style="rounded=0;whiteSpace=wrap;html=1;sketch=1;hachureGap=4;jiggle=1;curveFitting=1;fontFamily=Architects Daughter;fontSource=https%3A%2F%2Ffonts.googleapis.com%2Fcss%3Ffamily%3DArchitects%2BDaughter;verticalAlign=middle;spacingTop=-3;fillColor=#fff2cc;strokeColor=#000000;fontSize=10;fillStyle=solid;spacing=0;" vertex="1" parent="1">
          <mxGeometry x="954" y="1240.5" width="81" height="14" as="geometry" />
        </mxCell>
        <mxCell id="QYfyC9NZ6OEIeVa-5MZa-70" value="1 cpu - 128&amp;nbsp;&lt;span style=&quot;background-color: transparent; color: light-dark(rgb(0, 0, 0), rgb(255, 255, 255));&quot;&gt;mb&lt;/span&gt;" style="rounded=0;whiteSpace=wrap;html=1;sketch=1;hachureGap=4;jiggle=1;curveFitting=1;fontFamily=Architects Daughter;fontSource=https%3A%2F%2Ffonts.googleapis.com%2Fcss%3Ffamily%3DArchitects%2BDaughter;verticalAlign=middle;spacingTop=-3;fillColor=#fff2cc;strokeColor=#000000;fontSize=10;fillStyle=solid;spacing=0;" vertex="1" parent="1">
          <mxGeometry x="1048" y="1264" width="81" height="14" as="geometry" />
        </mxCell>
        <mxCell id="QYfyC9NZ6OEIeVa-5MZa-71" value="1 cpu - 128&amp;nbsp;&lt;span style=&quot;background-color: transparent; color: light-dark(rgb(0, 0, 0), rgb(255, 255, 255));&quot;&gt;mb&lt;/span&gt;" style="rounded=0;whiteSpace=wrap;html=1;sketch=1;hachureGap=4;jiggle=1;curveFitting=1;fontFamily=Architects Daughter;fontSource=https%3A%2F%2Ffonts.googleapis.com%2Fcss%3Ffamily%3DArchitects%2BDaughter;verticalAlign=middle;spacingTop=-3;fillColor=#fff2cc;strokeColor=#000000;fontSize=10;fillStyle=solid;spacing=0;" vertex="1" parent="1">
          <mxGeometry x="1145" y="1240.5" width="81" height="14" as="geometry" />
        </mxCell>
        <mxCell id="QYfyC9NZ6OEIeVa-5MZa-72" value="VM 1&lt;div&gt;Ansible Controller&lt;/div&gt;" style="rounded=0;whiteSpace=wrap;html=1;sketch=1;hachureGap=4;jiggle=2;curveFitting=1;fontFamily=Architects Daughter;fontSource=https%3A%2F%2Ffonts.googleapis.com%2Fcss%3Ffamily%3DArchitects%2BDaughter;verticalAlign=middle;spacingTop=4;fillColor=#FFCC99;strokeColor=#36393d;align=center;fontSize=12;fontColor=default;" vertex="1" parent="1">
          <mxGeometry x="278.75" y="1472" width="127.5" height="44" as="geometry" />
        </mxCell>
        <mxCell id="QYfyC9NZ6OEIeVa-5MZa-73" value="Host 1" style="rounded=0;whiteSpace=wrap;html=1;sketch=1;hachureGap=4;jiggle=2;curveFitting=1;fontFamily=Architects Daughter;fontSource=https%3A%2F%2Ffonts.googleapis.com%2Fcss%3Ffamily%3DArchitects%2BDaughter;verticalAlign=middle;spacingTop=4;fillColor=#FFCC99;strokeColor=#36393d;" vertex="1" parent="1">
          <mxGeometry x="201" y="1582.5" width="73" height="52" as="geometry" />
        </mxCell>
        <mxCell id="QYfyC9NZ6OEIeVa-5MZa-74" value="Host 2" style="rounded=0;whiteSpace=wrap;html=1;sketch=1;hachureGap=4;jiggle=2;curveFitting=1;fontFamily=Architects Daughter;fontSource=https%3A%2F%2Ffonts.googleapis.com%2Fcss%3Ffamily%3DArchitects%2BDaughter;verticalAlign=middle;spacingTop=4;fillColor=#FFCC99;strokeColor=#36393d;align=center;fontSize=12;fontColor=default;" vertex="1" parent="1">
          <mxGeometry x="306" y="1611" width="73" height="52" as="geometry" />
        </mxCell>
        <mxCell id="QYfyC9NZ6OEIeVa-5MZa-75" value="Host 3" style="rounded=0;whiteSpace=wrap;html=1;sketch=1;hachureGap=4;jiggle=2;curveFitting=1;fontFamily=Architects Daughter;fontSource=https%3A%2F%2Ffonts.googleapis.com%2Fcss%3Ffamily%3DArchitects%2BDaughter;verticalAlign=middle;spacingTop=4;fillColor=#FFCC99;strokeColor=#36393d;align=center;fontSize=12;fontColor=default;" vertex="1" parent="1">
          <mxGeometry x="406.25" y="1582.5" width="73" height="52" as="geometry" />
        </mxCell>
        <mxCell id="QYfyC9NZ6OEIeVa-5MZa-76" value="" style="edgeStyle=none;curved=1;rounded=0;sketch=1;hachureGap=4;jiggle=2;curveFitting=1;orthogonalLoop=1;jettySize=auto;html=1;fontFamily=Architects Daughter;fontSource=https%3A%2F%2Ffonts.googleapis.com%2Fcss%3Ffamily%3DArchitects%2BDaughter;fontSize=13;startSize=14;endArrow=open;endSize=14;sourcePerimeterSpacing=8;targetPerimeterSpacing=8;" edge="1" parent="1" source="QYfyC9NZ6OEIeVa-5MZa-83" target="QYfyC9NZ6OEIeVa-5MZa-80">
          <mxGeometry relative="1" as="geometry">
            <mxPoint x="140" y="1359.5" as="sourcePoint" />
            <mxPoint x="220" y="1439.5" as="targetPoint" />
          </mxGeometry>
        </mxCell>
        <mxCell id="QYfyC9NZ6OEIeVa-5MZa-77" value="" style="edgeStyle=none;curved=1;rounded=0;sketch=1;hachureGap=4;jiggle=2;curveFitting=1;orthogonalLoop=1;jettySize=auto;html=1;fontFamily=Architects Daughter;fontSource=https%3A%2F%2Ffonts.googleapis.com%2Fcss%3Ffamily%3DArchitects%2BDaughter;fontSize=13;startSize=14;endArrow=open;endSize=14;sourcePerimeterSpacing=8;targetPerimeterSpacing=8;" edge="1" parent="1" source="QYfyC9NZ6OEIeVa-5MZa-83" target="QYfyC9NZ6OEIeVa-5MZa-81">
          <mxGeometry relative="1" as="geometry">
            <mxPoint x="317" y="1560.5" as="sourcePoint" />
            <mxPoint x="290" y="1589.5" as="targetPoint" />
          </mxGeometry>
        </mxCell>
        <mxCell id="QYfyC9NZ6OEIeVa-5MZa-78" value="" style="edgeStyle=none;curved=1;rounded=0;sketch=1;hachureGap=4;jiggle=2;curveFitting=1;orthogonalLoop=1;jettySize=auto;html=1;fontFamily=Architects Daughter;fontSource=https%3A%2F%2Ffonts.googleapis.com%2Fcss%3Ffamily%3DArchitects%2BDaughter;fontSize=13;startSize=14;endArrow=open;endSize=14;sourcePerimeterSpacing=8;targetPerimeterSpacing=8;" edge="1" parent="1" source="QYfyC9NZ6OEIeVa-5MZa-83" target="QYfyC9NZ6OEIeVa-5MZa-82">
          <mxGeometry relative="1" as="geometry">
            <mxPoint x="327" y="1570.5" as="sourcePoint" />
            <mxPoint x="300" y="1599.5" as="targetPoint" />
          </mxGeometry>
        </mxCell>
        <mxCell id="QYfyC9NZ6OEIeVa-5MZa-79" value="Ansible" style="rounded=0;whiteSpace=wrap;html=1;sketch=1;hachureGap=4;jiggle=1;curveFitting=1;fontFamily=Architects Daughter;fontSource=https%3A%2F%2Ffonts.googleapis.com%2Fcss%3Ffamily%3DArchitects%2BDaughter;verticalAlign=middle;spacingTop=4;fillColor=#E6E6E6;strokeColor=#36393d;fontSize=11;fillStyle=solid;" vertex="1" parent="1">
          <mxGeometry x="311" y="1513" width="54" height="28" as="geometry" />
        </mxCell>
        <mxCell id="QYfyC9NZ6OEIeVa-5MZa-80" value="22" style="rounded=0;whiteSpace=wrap;html=1;sketch=1;hachureGap=4;jiggle=1;curveFitting=1;fontFamily=Architects Daughter;fontSource=https%3A%2F%2Ffonts.googleapis.com%2Fcss%3Ffamily%3DArchitects%2BDaughter;verticalAlign=middle;spacingTop=0;fillColor=#FFFF99;strokeColor=#36393d;fontSize=11;fillStyle=solid;labelBackgroundColor=none;" vertex="1" parent="1">
          <mxGeometry x="227.25" y="1575" width="24" height="15" as="geometry" />
        </mxCell>
        <mxCell id="QYfyC9NZ6OEIeVa-5MZa-81" value="22" style="rounded=0;whiteSpace=wrap;html=1;sketch=1;hachureGap=4;jiggle=1;curveFitting=1;fontFamily=Architects Daughter;fontSource=https%3A%2F%2Ffonts.googleapis.com%2Fcss%3Ffamily%3DArchitects%2BDaughter;verticalAlign=middle;spacingTop=0;fillColor=#FFFF99;strokeColor=#36393d;fontSize=11;fillStyle=solid;labelBackgroundColor=none;" vertex="1" parent="1">
          <mxGeometry x="330.5" y="1606" width="24" height="15" as="geometry" />
        </mxCell>
        <mxCell id="QYfyC9NZ6OEIeVa-5MZa-82" value="22" style="rounded=0;whiteSpace=wrap;html=1;sketch=1;hachureGap=4;jiggle=1;curveFitting=1;fontFamily=Architects Daughter;fontSource=https%3A%2F%2Ffonts.googleapis.com%2Fcss%3Ffamily%3DArchitects%2BDaughter;verticalAlign=middle;spacingTop=0;fillColor=#FFFF99;strokeColor=#36393d;fontSize=11;fillStyle=solid;labelBackgroundColor=none;" vertex="1" parent="1">
          <mxGeometry x="428.5" y="1575" width="24" height="15" as="geometry" />
        </mxCell>
        <mxCell id="QYfyC9NZ6OEIeVa-5MZa-83" value="ssh" style="rounded=0;whiteSpace=wrap;html=1;sketch=1;hachureGap=4;jiggle=1;curveFitting=1;fontFamily=Architects Daughter;fontSource=https%3A%2F%2Ffonts.googleapis.com%2Fcss%3Ffamily%3DArchitects%2BDaughter;verticalAlign=middle;spacingTop=0;fillColor=#FFFF99;strokeColor=#36393d;fontSize=11;fillStyle=solid;labelBackgroundColor=none;" vertex="1" parent="1">
          <mxGeometry x="321.37" y="1537" width="33.25" height="16" as="geometry" />
        </mxCell>
        <mxCell id="QYfyC9NZ6OEIeVa-5MZa-84" value="ssh-keygen" style="rounded=0;whiteSpace=wrap;html=1;sketch=1;hachureGap=4;jiggle=1;curveFitting=1;fontFamily=Architects Daughter;fontSource=https%3A%2F%2Ffonts.googleapis.com%2Fcss%3Ffamily%3DArchitects%2BDaughter;verticalAlign=middle;spacingTop=0;fillColor=#E6E6E6;strokeColor=#36393d;fontSize=11;fillStyle=solid;" vertex="1" parent="1">
          <mxGeometry x="370" y="1464" width="64" height="23" as="geometry" />
        </mxCell>
        <mxCell id="QYfyC9NZ6OEIeVa-5MZa-85" value="" style="edgeStyle=none;curved=1;rounded=0;sketch=1;hachureGap=4;jiggle=2;curveFitting=1;orthogonalLoop=1;jettySize=auto;html=1;fontFamily=Architects Daughter;fontSource=https%3A%2F%2Ffonts.googleapis.com%2Fcss%3Ffamily%3DArchitects%2BDaughter;fontSize=13;startSize=14;endArrow=open;endSize=14;sourcePerimeterSpacing=8;targetPerimeterSpacing=8;" edge="1" parent="1" source="QYfyC9NZ6OEIeVa-5MZa-84" target="QYfyC9NZ6OEIeVa-5MZa-86">
          <mxGeometry relative="1" as="geometry">
            <mxPoint x="457" y="1445" as="sourcePoint" />
            <mxPoint x="511" y="1468" as="targetPoint" />
          </mxGeometry>
        </mxCell>
        <mxCell id="QYfyC9NZ6OEIeVa-5MZa-86" value="key pair" style="rounded=0;whiteSpace=wrap;html=1;hachureGap=4;fontFamily=Architects Daughter;fontSource=https%3A%2F%2Ffonts.googleapis.com%2Fcss%3Ffamily%3DArchitects%2BDaughter;verticalAlign=top;spacingTop=4;fillColor=default;strokeColor=#36393d;dashed=1;dashPattern=8 8;container=1;collapsible=0;recursiveResize=0;" vertex="1" parent="1">
          <mxGeometry x="520" y="1445" width="139" height="103.25" as="geometry" />
        </mxCell>
        <mxCell id="QYfyC9NZ6OEIeVa-5MZa-87" value="&lt;div&gt;public key&lt;/div&gt;" style="shape=note;whiteSpace=wrap;html=1;backgroundOutline=1;darkOpacity=0.05;rounded=0;sketch=1;hachureGap=4;jiggle=1;curveFitting=1;strokeColor=#36393d;align=center;verticalAlign=middle;spacingTop=0;fontFamily=Architects Daughter;fontSource=https%3A%2F%2Ffonts.googleapis.com%2Fcss%3Ffamily%3DArchitects%2BDaughter;fontSize=9;fontColor=default;fillColor=#99CCFF;size=11;fillStyle=solid;labelBackgroundColor=none;" vertex="1" parent="QYfyC9NZ6OEIeVa-5MZa-86">
          <mxGeometry x="82" y="31.25" width="37" height="55" as="geometry" />
        </mxCell>
        <mxCell id="QYfyC9NZ6OEIeVa-5MZa-88" value="&lt;div&gt;private key&lt;/div&gt;" style="shape=note;whiteSpace=wrap;html=1;backgroundOutline=1;darkOpacity=0.05;rounded=0;sketch=1;hachureGap=4;jiggle=1;curveFitting=1;strokeColor=#36393d;align=center;verticalAlign=middle;spacingTop=0;fontFamily=Architects Daughter;fontSource=https%3A%2F%2Ffonts.googleapis.com%2Fcss%3Ffamily%3DArchitects%2BDaughter;fontSize=9;fontColor=default;fillColor=#FF9999;size=11;fillStyle=solid;labelBackgroundColor=none;" vertex="1" parent="QYfyC9NZ6OEIeVa-5MZa-86">
          <mxGeometry x="25" y="30.75" width="37" height="56" as="geometry" />
        </mxCell>
        <mxCell id="QYfyC9NZ6OEIeVa-5MZa-89" value="./ansible-on-vagrant" style="html=1;verticalLabelPosition=bottom;align=center;labelBackgroundColor=#ffffff;verticalAlign=middle;strokeWidth=1;strokeColor=#b85450;shadow=0;dashed=0;shape=mxgraph.ios7.icons.folder;rounded=0;glass=0;sketch=1;fillWeight=-1;hachureGap=4;hachureAngle=-41;jiggle=1;disableMultiStroke=0;disableMultiStrokeFill=1;curveFitting=1;simplification=0;fontFamily=Architects Daughter;fontSource=https%3A%2F%2Ffonts.googleapis.com%2Fcss%3Ffamily%3DArchitects%2BDaughter;fontSize=10;fillColor=#f8cecc;fillStyle=solid;spacingTop=-5;" vertex="1" parent="1">
          <mxGeometry x="643" y="1534" width="32" height="27" as="geometry" />
        </mxCell>
        <mxCell id="QYfyC9NZ6OEIeVa-5MZa-90" value="./ansible-on-vagrant" style="html=1;verticalLabelPosition=bottom;align=center;labelBackgroundColor=#ffffff;verticalAlign=middle;strokeWidth=1;strokeColor=#b85450;shadow=0;dashed=0;shape=mxgraph.ios7.icons.folder;rounded=0;glass=0;sketch=1;fillWeight=-1;hachureGap=4;hachureAngle=-41;jiggle=1;disableMultiStroke=0;disableMultiStrokeFill=1;curveFitting=1;simplification=0;fontFamily=Architects Daughter;fontSource=https%3A%2F%2Ffonts.googleapis.com%2Fcss%3Ffamily%3DArchitects%2BDaughter;fontSize=10;fillColor=#f8cecc;fillStyle=solid;spacingTop=-5;" vertex="1" parent="1">
          <mxGeometry x="426.75" y="1640.5" width="32" height="27" as="geometry" />
        </mxCell>
        <mxCell id="QYfyC9NZ6OEIeVa-5MZa-91" value="./ansible-on-vagrant" style="html=1;verticalLabelPosition=bottom;align=center;labelBackgroundColor=#ffffff;verticalAlign=middle;strokeWidth=1;strokeColor=#b85450;shadow=0;dashed=0;shape=mxgraph.ios7.icons.folder;rounded=0;glass=0;sketch=1;fillWeight=-1;hachureGap=4;hachureAngle=-41;jiggle=1;disableMultiStroke=0;disableMultiStrokeFill=1;curveFitting=1;simplification=0;fontFamily=Architects Daughter;fontSource=https%3A%2F%2Ffonts.googleapis.com%2Fcss%3Ffamily%3DArchitects%2BDaughter;fontSize=10;fillColor=#f8cecc;fillStyle=solid;spacingTop=-5;" vertex="1" parent="1">
          <mxGeometry x="332" y="1673" width="32" height="27" as="geometry" />
        </mxCell>
        <mxCell id="QYfyC9NZ6OEIeVa-5MZa-92" value="./ansible-on-vagrant" style="html=1;verticalLabelPosition=bottom;align=center;labelBackgroundColor=#ffffff;verticalAlign=middle;strokeWidth=1;strokeColor=#b85450;shadow=0;dashed=0;shape=mxgraph.ios7.icons.folder;rounded=0;glass=0;sketch=1;fillWeight=-1;hachureGap=4;hachureAngle=-41;jiggle=1;disableMultiStroke=0;disableMultiStrokeFill=1;curveFitting=1;simplification=0;fontFamily=Architects Daughter;fontSource=https%3A%2F%2Ffonts.googleapis.com%2Fcss%3Ffamily%3DArchitects%2BDaughter;fontSize=10;fillColor=#f8cecc;fillStyle=solid;spacingTop=-5;" vertex="1" parent="1">
          <mxGeometry x="223.25" y="1640.5" width="32" height="27" as="geometry" />
        </mxCell>
        <mxCell id="QYfyC9NZ6OEIeVa-5MZa-93" value="./ansible-on-vagrant" style="html=1;verticalLabelPosition=bottom;align=center;labelBackgroundColor=#ffffff;verticalAlign=middle;strokeWidth=1;strokeColor=#b85450;shadow=0;dashed=0;shape=mxgraph.ios7.icons.folder;rounded=0;glass=0;sketch=1;fillWeight=-1;hachureGap=4;hachureAngle=-41;jiggle=1;disableMultiStroke=0;disableMultiStrokeFill=1;curveFitting=1;simplification=0;fontFamily=Architects Daughter;fontSource=https%3A%2F%2Ffonts.googleapis.com%2Fcss%3Ffamily%3DArchitects%2BDaughter;fontSize=10;fillColor=#f8cecc;fillStyle=solid;spacingTop=-5;" vertex="1" parent="1">
          <mxGeometry x="952.25" y="366.5" width="32" height="27" as="geometry" />
        </mxCell>
        <mxCell id="QYfyC9NZ6OEIeVa-5MZa-94" value="./ansible-on-vagrant" style="html=1;verticalLabelPosition=bottom;align=center;labelBackgroundColor=#ffffff;verticalAlign=middle;strokeWidth=1;strokeColor=#b85450;shadow=0;dashed=0;shape=mxgraph.ios7.icons.folder;rounded=0;glass=0;sketch=1;fillWeight=-1;hachureGap=4;hachureAngle=-41;jiggle=1;disableMultiStroke=0;disableMultiStrokeFill=1;curveFitting=1;simplification=0;fontFamily=Architects Daughter;fontSource=https%3A%2F%2Ffonts.googleapis.com%2Fcss%3Ffamily%3DArchitects%2BDaughter;fontSize=10;fillColor=#f8cecc;fillStyle=solid;spacingTop=-5;" vertex="1" parent="1">
          <mxGeometry x="850.75" y="390" width="32" height="27" as="geometry" />
        </mxCell>
        <mxCell id="QYfyC9NZ6OEIeVa-5MZa-95" value="./ansible-on-vagrant" style="html=1;verticalLabelPosition=bottom;align=center;labelBackgroundColor=#ffffff;verticalAlign=middle;strokeWidth=1;strokeColor=#b85450;shadow=0;dashed=0;shape=mxgraph.ios7.icons.folder;rounded=0;glass=0;sketch=1;fillWeight=-1;hachureGap=4;hachureAngle=-41;jiggle=1;disableMultiStroke=0;disableMultiStrokeFill=1;curveFitting=1;simplification=0;fontFamily=Architects Daughter;fontSource=https%3A%2F%2Ffonts.googleapis.com%2Fcss%3Ffamily%3DArchitects%2BDaughter;fontSize=10;fillColor=#f8cecc;fillStyle=solid;spacingTop=-5;" vertex="1" parent="1">
          <mxGeometry x="761.25" y="366.5" width="32" height="27" as="geometry" />
        </mxCell>
        <mxCell id="QYfyC9NZ6OEIeVa-5MZa-96" value="./ansible-on-vagrant" style="html=1;verticalLabelPosition=bottom;align=center;labelBackgroundColor=#ffffff;verticalAlign=middle;strokeWidth=1;strokeColor=#b85450;shadow=0;dashed=0;shape=mxgraph.ios7.icons.folder;rounded=0;glass=0;sketch=1;fillWeight=-1;hachureGap=4;hachureAngle=-41;jiggle=1;disableMultiStroke=0;disableMultiStrokeFill=1;curveFitting=1;simplification=0;fontFamily=Architects Daughter;fontSource=https%3A%2F%2Ffonts.googleapis.com%2Fcss%3Ffamily%3DArchitects%2BDaughter;fontSize=10;fillColor=#f8cecc;fillStyle=solid;spacingTop=-5;" vertex="1" parent="1">
          <mxGeometry x="472" y="419" width="32" height="27" as="geometry" />
        </mxCell>
        <mxCell id="QYfyC9NZ6OEIeVa-5MZa-97" value="" style="shape=note;whiteSpace=wrap;html=1;backgroundOutline=1;darkOpacity=0.05;rounded=0;sketch=1;hachureGap=4;jiggle=1;curveFitting=1;strokeColor=#36393d;align=center;verticalAlign=middle;spacingTop=0;fontFamily=Architects Daughter;fontSource=https%3A%2F%2Ffonts.googleapis.com%2Fcss%3Ffamily%3DArchitects%2BDaughter;fontSize=9;fontColor=default;fillColor=#99CCFF;size=5;fillStyle=solid;labelBackgroundColor=none;" vertex="1" parent="1">
          <mxGeometry x="445" y="1648" width="10" height="15" as="geometry" />
        </mxCell>
        <mxCell id="QYfyC9NZ6OEIeVa-5MZa-98" value="" style="shape=note;whiteSpace=wrap;html=1;backgroundOutline=1;darkOpacity=0.05;rounded=0;sketch=1;hachureGap=4;jiggle=1;curveFitting=1;strokeColor=#36393d;align=center;verticalAlign=middle;spacingTop=0;fontFamily=Architects Daughter;fontSource=https%3A%2F%2Ffonts.googleapis.com%2Fcss%3Ffamily%3DArchitects%2BDaughter;fontSize=9;fontColor=default;fillColor=#99CCFF;size=5;fillStyle=solid;labelBackgroundColor=none;" vertex="1" parent="1">
          <mxGeometry x="349" y="1681" width="10" height="15" as="geometry" />
        </mxCell>
        <mxCell id="QYfyC9NZ6OEIeVa-5MZa-99" value="" style="shape=note;whiteSpace=wrap;html=1;backgroundOutline=1;darkOpacity=0.05;rounded=0;sketch=1;hachureGap=4;jiggle=1;curveFitting=1;strokeColor=#36393d;align=center;verticalAlign=middle;spacingTop=0;fontFamily=Architects Daughter;fontSource=https%3A%2F%2Ffonts.googleapis.com%2Fcss%3Ffamily%3DArchitects%2BDaughter;fontSize=9;fontColor=default;fillColor=#99CCFF;size=5;fillStyle=solid;labelBackgroundColor=none;" vertex="1" parent="1">
          <mxGeometry x="240" y="1648" width="10" height="15" as="geometry" />
        </mxCell>
        <mxCell id="QYfyC9NZ6OEIeVa-5MZa-100" style="edgeStyle=none;curved=1;rounded=0;sketch=1;hachureGap=4;jiggle=2;curveFitting=1;orthogonalLoop=1;jettySize=auto;html=1;fontFamily=Architects Daughter;fontSource=https%3A%2F%2Ffonts.googleapis.com%2Fcss%3Ffamily%3DArchitects%2BDaughter;fontSize=16;startSize=14;endArrow=open;endSize=14;sourcePerimeterSpacing=8;targetPerimeterSpacing=8;" edge="1" parent="1" source="QYfyC9NZ6OEIeVa-5MZa-101" target="QYfyC9NZ6OEIeVa-5MZa-110">
          <mxGeometry relative="1" as="geometry" />
        </mxCell>
        <mxCell id="QYfyC9NZ6OEIeVa-5MZa-101" value="&lt;div&gt;playbook.yml&lt;/div&gt;" style="shape=note;whiteSpace=wrap;html=1;backgroundOutline=1;darkOpacity=0.05;rounded=0;sketch=1;hachureGap=4;jiggle=2;curveFitting=1;strokeColor=#36393d;align=center;verticalAlign=middle;spacingTop=4;fontFamily=Architects Daughter;fontSource=https%3A%2F%2Ffonts.googleapis.com%2Fcss%3Ffamily%3DArchitects%2BDaughter;fontSize=12;fontColor=default;fillColor=#A9C4EB;size=18;fillStyle=hachure;" vertex="1" parent="1">
          <mxGeometry x="1037.25" y="1423" width="67.5" height="78" as="geometry" />
        </mxCell>
        <mxCell id="QYfyC9NZ6OEIeVa-5MZa-102" style="edgeStyle=none;curved=1;rounded=0;sketch=1;hachureGap=4;jiggle=2;curveFitting=1;orthogonalLoop=1;jettySize=auto;html=1;fontFamily=Architects Daughter;fontSource=https%3A%2F%2Ffonts.googleapis.com%2Fcss%3Ffamily%3DArchitects%2BDaughter;fontSize=16;startSize=14;endArrow=open;endSize=14;sourcePerimeterSpacing=8;targetPerimeterSpacing=8;" edge="1" parent="1" source="QYfyC9NZ6OEIeVa-5MZa-103" target="QYfyC9NZ6OEIeVa-5MZa-110">
          <mxGeometry relative="1" as="geometry" />
        </mxCell>
        <mxCell id="QYfyC9NZ6OEIeVa-5MZa-103" value="&lt;div&gt;Inventory.ini&lt;/div&gt;" style="shape=note;whiteSpace=wrap;html=1;backgroundOutline=1;darkOpacity=0.05;rounded=0;sketch=1;hachureGap=4;jiggle=2;curveFitting=1;strokeColor=#36393d;align=center;verticalAlign=middle;spacingTop=4;fontFamily=Architects Daughter;fontSource=https%3A%2F%2Ffonts.googleapis.com%2Fcss%3Ffamily%3DArchitects%2BDaughter;fontSize=12;fontColor=default;fillColor=#A9C4EB;size=18;fillStyle=hachure;" vertex="1" parent="1">
          <mxGeometry x="872.75" y="1432" width="67.5" height="78" as="geometry" />
        </mxCell>
        <mxCell id="QYfyC9NZ6OEIeVa-5MZa-104" value="Host 1" style="rounded=0;whiteSpace=wrap;html=1;sketch=1;hachureGap=4;jiggle=2;curveFitting=1;fontFamily=Architects Daughter;fontSource=https%3A%2F%2Ffonts.googleapis.com%2Fcss%3Ffamily%3DArchitects%2BDaughter;verticalAlign=middle;spacingTop=4;fillColor=#FFCC99;strokeColor=#36393d;" vertex="1" parent="1">
          <mxGeometry x="862.75" y="1630.5" width="73" height="52" as="geometry" />
        </mxCell>
        <mxCell id="QYfyC9NZ6OEIeVa-5MZa-105" value="Host 2" style="rounded=0;whiteSpace=wrap;html=1;sketch=1;hachureGap=4;jiggle=2;curveFitting=1;fontFamily=Architects Daughter;fontSource=https%3A%2F%2Ffonts.googleapis.com%2Fcss%3Ffamily%3DArchitects%2BDaughter;verticalAlign=middle;spacingTop=4;fillColor=#FFCC99;strokeColor=#36393d;align=center;fontSize=12;fontColor=default;" vertex="1" parent="1">
          <mxGeometry x="956.75" y="1654" width="73" height="52" as="geometry" />
        </mxCell>
        <mxCell id="QYfyC9NZ6OEIeVa-5MZa-106" value="Host 3" style="rounded=0;whiteSpace=wrap;html=1;sketch=1;hachureGap=4;jiggle=2;curveFitting=1;fontFamily=Architects Daughter;fontSource=https%3A%2F%2Ffonts.googleapis.com%2Fcss%3Ffamily%3DArchitects%2BDaughter;verticalAlign=middle;spacingTop=4;fillColor=#FFCC99;strokeColor=#36393d;align=center;fontSize=12;fontColor=default;" vertex="1" parent="1">
          <mxGeometry x="1053.75" y="1630.5" width="73" height="52" as="geometry" />
        </mxCell>
        <mxCell id="QYfyC9NZ6OEIeVa-5MZa-107" value="" style="edgeStyle=none;curved=1;rounded=0;sketch=1;hachureGap=4;jiggle=2;curveFitting=1;orthogonalLoop=1;jettySize=auto;html=1;fontFamily=Architects Daughter;fontSource=https%3A%2F%2Ffonts.googleapis.com%2Fcss%3Ffamily%3DArchitects%2BDaughter;fontSize=13;startSize=14;endArrow=open;endSize=14;sourcePerimeterSpacing=8;targetPerimeterSpacing=8;" edge="1" parent="1" source="QYfyC9NZ6OEIeVa-5MZa-110" target="QYfyC9NZ6OEIeVa-5MZa-104">
          <mxGeometry relative="1" as="geometry">
            <mxPoint x="790.75" y="1402.5" as="sourcePoint" />
            <mxPoint x="870.75" y="1482.5" as="targetPoint" />
          </mxGeometry>
        </mxCell>
        <mxCell id="QYfyC9NZ6OEIeVa-5MZa-108" value="" style="edgeStyle=none;curved=1;rounded=0;sketch=1;hachureGap=4;jiggle=2;curveFitting=1;orthogonalLoop=1;jettySize=auto;html=1;fontFamily=Architects Daughter;fontSource=https%3A%2F%2Ffonts.googleapis.com%2Fcss%3Ffamily%3DArchitects%2BDaughter;fontSize=13;startSize=14;endArrow=open;endSize=14;sourcePerimeterSpacing=8;targetPerimeterSpacing=8;" edge="1" parent="1" source="QYfyC9NZ6OEIeVa-5MZa-110" target="QYfyC9NZ6OEIeVa-5MZa-105">
          <mxGeometry relative="1" as="geometry">
            <mxPoint x="967.75" y="1603.5" as="sourcePoint" />
            <mxPoint x="940.75" y="1632.5" as="targetPoint" />
          </mxGeometry>
        </mxCell>
        <mxCell id="QYfyC9NZ6OEIeVa-5MZa-109" value="" style="edgeStyle=none;curved=1;rounded=0;sketch=1;hachureGap=4;jiggle=2;curveFitting=1;orthogonalLoop=1;jettySize=auto;html=1;fontFamily=Architects Daughter;fontSource=https%3A%2F%2Ffonts.googleapis.com%2Fcss%3Ffamily%3DArchitects%2BDaughter;fontSize=13;startSize=14;endArrow=open;endSize=14;sourcePerimeterSpacing=8;targetPerimeterSpacing=8;" edge="1" parent="1" source="QYfyC9NZ6OEIeVa-5MZa-110" target="QYfyC9NZ6OEIeVa-5MZa-106">
          <mxGeometry relative="1" as="geometry">
            <mxPoint x="977.75" y="1613.5" as="sourcePoint" />
            <mxPoint x="950.75" y="1642.5" as="targetPoint" />
          </mxGeometry>
        </mxCell>
        <mxCell id="QYfyC9NZ6OEIeVa-5MZa-110" value="ansible-playbook -i inventory.ini playbook.yml" style="rounded=0;whiteSpace=wrap;html=1;sketch=1;hachureGap=4;jiggle=1;curveFitting=1;fontFamily=Architects Daughter;fontSource=https%3A%2F%2Ffonts.googleapis.com%2Fcss%3Ffamily%3DArchitects%2BDaughter;verticalAlign=middle;spacingTop=4;fillColor=#E6E6E6;strokeColor=#36393d;fontSize=11;fillStyle=solid;" vertex="1" parent="1">
          <mxGeometry x="900.25" y="1556" width="234" height="28" as="geometry" />
        </mxCell>
      </root>
    </mxGraphModel>
  </diagram>
</mxfile>
